<?xml version="1.0" standalone="no"?><!DOCTYPE svg PUBLIC "-//W3C//DTD SVG 1.1//EN" "http://www.w3.org/Graphics/SVG/1.1/DTD/svg11.dtd"><svg class="icon" height="512" viewBox="0 0 1024 1024" version="1.1" xmlns="http://www.w3.org/2000/svg"><path d="M323.584 591.872c-8.192-19.968-13.312-40.96-15.36-62.464H393.728c7.68 52.736 49.664 94.72 102.912 101.888v84.992c-22.016-1.536-43.008-6.656-63.488-15.36-24.576-10.24-46.08-25.088-65.024-44.032-19.456-18.432-34.304-40.448-44.544-65.024z m273.92-79.36c0-47.104-38.4-85.504-85.504-85.504s-85.504 38.4-85.504 85.504 38.4 85.504 85.504 85.504 85.504-38.4 85.504-85.504z m-5.632 188.416c24.576-10.24 46.08-25.088 65.024-44.032 18.944-18.944 33.792-40.448 44.032-65.024 8.704-19.968 13.824-41.472 15.36-63.488h-84.992c-7.168 52.736-48.64 94.72-100.864 102.4 0 1.024 0.512 2.048 0.512 3.072v81.92c20.992-1.536 41.472-6.656 60.928-14.848zM432.64 324.096c-24.576 10.24-46.08 25.088-65.024 44.032-18.944 18.944-33.792 40.448-44.032 65.024-8.192 19.968-13.312 40.96-15.36 62.464H393.728c7.68-52.736 49.664-94.72 102.912-101.888V308.736c-22.528 1.536-44.032 6.656-64 15.36z m224.256 43.52c-18.944-18.944-40.448-33.792-65.024-44.032-19.456-8.192-39.936-13.312-61.44-15.36v82.432c0 1.024 0 2.048-0.512 3.072 51.712 7.68 92.672 48.64 100.352 100.864 1.024 0 2.048-0.512 3.072-0.512h82.432c-2.048-20.992-7.168-41.984-15.36-61.44-9.728-24.064-24.576-46.08-43.52-65.024z m-126.464 383.488v118.272c183.808-9.216 330.752-156.672 339.456-340.48h-119.296c-7.68 118.272-101.888 212.992-220.16 222.208z m0-597.504v120.32c117.248 8.704 211.456 102.912 220.16 220.16H870.4c-9.216-183.808-156.16-331.264-339.968-340.48z m-34.304 597.504c-118.784-8.192-214.016-102.4-222.208-221.184H154.112c9.216 183.808 157.184 331.264 341.504 339.456v89.088c0 9.728 7.68 17.408 17.408 17.408s17.408-7.68 17.408-17.408v-89.088h-34.816l0.512-118.272z m459.264-257.024H870.4v34.816h84.992c9.728 0 17.408-7.68 17.408-17.408s-7.68-17.408-17.408-17.408z m-801.28 1.024h119.296C282.112 376.32 377.344 281.6 496.128 273.92V153.6c-185.344 8.192-333.312 156.672-342.016 341.504H68.096c-9.728 0-17.408 7.68-17.408 17.408s7.68 17.408 17.408 17.408h86.016v-34.816z m376.32-429.568c0-9.728-7.68-17.408-17.408-17.408s-17.408 7.68-17.408 17.408V153.6h34.816V65.536z" fill="" /></svg>